<?xml version="1.0" standalone="no"?>
<!DOCTYPE svg PUBLIC "-//W3C//DTD SVG 20010904//EN"
 "http://www.w3.org/TR/2001/REC-SVG-20010904/DTD/svg10.dtd">
<svg version="1.0" xmlns="http://www.w3.org/2000/svg"
 width="1749.000000pt" height="1749.000000pt" viewBox="0 0 1749.000000 1749.000000"
 preserveAspectRatio="xMidYMid meet">
<metadata>
Created by potrace 1.14, written by Peter Selinger 2001-2017
</metadata>
<g transform="translate(0.000000,1749.000000) scale(0.100000,-0.100000)"
fill="#000000" stroke="none">
<path d="M8717 16934 c-1 -1 -36 -5 -77 -8 -42 -4 -89 -9 -105 -11 -55 -9 -90
-15 -115 -20 -14 -3 -36 -7 -50 -10 -20 -4 -139 -36 -220 -60 -100 -29 -183
-67 -310 -141 -63 -37 -140 -80 -170 -97 -30 -16 -62 -36 -71 -43 -8 -8 -18
-14 -21 -14 -3 0 -59 -31 -124 -69 -162 -93 -341 -197 -574 -331 -218 -126
-566 -327 -608 -351 -15 -9 -151 -87 -302 -174 -151 -87 -306 -177 -345 -200
-38 -22 -77 -44 -85 -48 -8 -4 -28 -15 -45 -25 -41 -26 -619 -359 -675 -390
-25 -14 -56 -33 -70 -42 -14 -10 -47 -29 -75 -44 -27 -14 -57 -31 -65 -36 -15
-10 -393 -229 -480 -278 -25 -14 -59 -36 -76 -49 -17 -12 -36 -23 -42 -23 -7
0 -12 -4 -12 -10 0 -5 -5 -10 -10 -10 -12 0 -439 -248 -455 -264 -6 -6 -32
-27 -58 -46 -143 -108 -396 -404 -495 -581 -143 -255 -221 -461 -270 -709 -21
-105 -25 -127 -38 -250 -7 -69 -7 -370 0 -407 3 -12 7 -50 11 -84 4 -35 8 -66
10 -69 2 -3 6 -26 10 -50 3 -25 8 -53 11 -62 3 -9 7 -25 9 -37 15 -77 83 -285
121 -371 66 -145 160 -314 232 -415 135 -187 322 -381 427 -442 39 -22 89 -51
112 -64 23 -13 78 -45 124 -71 45 -27 86 -48 90 -48 5 0 9 -4 9 -10 0 -5 4
-10 9 -10 5 0 87 -45 181 -100 95 -55 174 -100 176 -100 1 0 43 -25 93 -55 50
-30 93 -55 96 -55 3 0 34 -18 69 -40 35 -22 65 -40 68 -40 3 0 47 -25 97 -55
51 -30 96 -55 101 -55 6 0 10 -4 10 -10 0 -5 4 -10 9 -10 5 0 119 -63 253
-141 134 -78 263 -153 287 -167 25 -13 68 -38 95 -54 28 -15 58 -33 66 -38 14
-9 40 -24 160 -92 25 -14 113 -65 195 -113 83 -48 209 -120 280 -162 72 -41
137 -78 145 -83 8 -5 53 -32 100 -58 47 -27 146 -84 220 -127 74 -43 178 -103
230 -133 52 -30 110 -63 128 -73 148 -85 182 -105 221 -127 l45 -26 -68 80
c-124 144 -274 386 -350 564 -61 142 -133 380 -150 495 -4 22 -12 78 -20 125
-14 85 -16 483 -3 560 4 19 9 58 13 85 6 47 8 61 18 103 2 9 11 49 20 87 35
150 99 322 183 489 54 109 177 308 194 314 5 2 9 10 9 17 0 7 3 15 8 17 4 2
32 35 63 73 197 245 463 455 769 606 140 69 383 155 490 174 15 3 60 11 102
19 41 8 106 18 144 23 85 10 449 11 524 1 69 -9 230 -37 252 -44 9 -3 25 -7
35 -9 96 -20 275 -82 388 -134 44 -21 172 -90 284 -155 111 -65 217 -125 234
-135 18 -10 119 -69 226 -131 107 -61 215 -124 240 -138 25 -14 63 -36 83 -49
21 -12 42 -23 48 -23 5 0 10 -4 10 -10 0 -5 4 -10 9 -10 5 0 49 -23 98 -51 48
-28 102 -59 118 -69 230 -133 436 -251 462 -266 18 -11 78 -46 135 -78 57 -33
284 -165 506 -293 222 -128 405 -233 408 -233 3 0 17 -8 32 -19 22 -15 377
-221 529 -307 23 -13 140 -81 260 -151 120 -69 234 -135 253 -146 61 -34 568
-327 750 -432 296 -173 598 -345 604 -345 3 0 6 789 6 1754 0 1558 -2 1763
-16 1842 -9 49 -18 103 -21 119 -11 68 -76 273 -118 378 -138 336 -368 650
-655 889 -30 25 -158 105 -285 178 -126 73 -315 182 -420 243 -104 60 -206
118 -225 129 -97 55 -138 79 -293 170 -92 54 -170 98 -174 98 -4 0 -14 6 -22
14 -9 8 -38 26 -66 41 -27 14 -66 36 -85 47 -127 74 -300 174 -330 191 -19 10
-165 95 -325 187 -159 92 -306 177 -325 187 -49 28 -1284 741 -1515 875 -104
61 -215 124 -245 141 -30 16 -66 37 -80 46 -22 15 -98 50 -201 95 -121 52
-405 127 -539 141 -30 3 -73 8 -95 12 -38 5 -333 12 -338 7z"/>
<path d="M10620 9044 c19 -21 37 -41 40 -44 27 -27 138 -182 165 -228 6 -9 13
-19 17 -22 15 -12 150 -284 183 -370 114 -294 164 -570 159 -874 -3 -172 -15
-287 -50 -446 -3 -14 -7 -36 -10 -49 -44 -214 -180 -527 -319 -735 -37 -54
-70 -103 -76 -110 -5 -6 -30 -38 -56 -71 -53 -67 -243 -260 -313 -317 -188
-155 -412 -287 -633 -372 -182 -71 -389 -123 -557 -141 -30 -3 -73 -8 -95 -10
-47 -6 -306 -6 -350 -1 -16 2 -61 7 -100 10 -38 4 -77 9 -85 11 -8 2 -35 7
-60 10 -24 4 -47 8 -51 10 -3 2 -19 6 -35 9 -80 15 -281 75 -349 106 -11 5
-49 22 -85 38 -36 16 -168 88 -295 162 -253 146 -280 161 -328 189 -18 10
-152 87 -298 171 -145 84 -277 161 -294 170 -16 9 -192 111 -390 225 -198 114
-380 219 -405 233 -25 14 -61 36 -80 49 -19 12 -38 23 -42 23 -4 0 -31 15 -60
33 -29 19 -78 47 -108 64 -30 17 -371 213 -757 436 -386 223 -714 413 -730
422 -15 8 -35 20 -43 25 -14 9 -77 45 -155 90 -16 9 -133 77 -260 150 -126 73
-250 144 -275 158 -25 14 -57 33 -72 43 -14 11 -28 19 -31 19 -5 0 -245 137
-262 150 -5 4 -35 21 -65 37 -30 17 -118 67 -195 112 -77 44 -142 81 -145 81
-3 0 -5 -800 -5 -1777 l2 -1778 27 -130 c91 -433 309 -839 610 -1141 167 -167
185 -180 536 -382 418 -240 570 -328 637 -369 40 -23 75 -43 79 -43 3 0 18 -8
32 -19 15 -10 47 -29 72 -43 25 -14 191 -109 370 -213 179 -103 345 -199 369
-213 25 -14 68 -38 95 -55 28 -16 76 -43 106 -60 30 -17 66 -38 80 -47 14 -9
32 -20 40 -23 8 -4 30 -16 49 -28 19 -11 98 -57 175 -101 78 -44 182 -104 231
-133 189 -111 647 -375 650 -375 2 0 40 -22 85 -50 45 -27 83 -50 85 -50 2 0
41 -22 87 -48 98 -58 399 -232 445 -258 18 -11 94 -55 170 -98 76 -44 165 -94
199 -113 62 -33 273 -121 308 -129 11 -2 40 -10 65 -18 297 -90 618 -114 951
-71 147 19 365 77 508 134 45 18 159 78 212 111 13 9 88 51 235 135 59 33 399
230 480 278 39 23 86 50 105 60 19 11 82 47 140 81 57 33 112 66 122 71 9 6
34 20 55 31 44 25 661 380 683 394 33 20 202 118 545 315 198 114 428 247 510
295 83 48 170 98 195 112 25 14 101 58 170 98 169 98 450 260 474 274 11 6 28
18 37 26 10 8 35 24 56 35 21 11 61 34 90 52 29 18 54 33 57 33 2 0 61 34 131
75 69 41 129 75 131 75 17 0 186 142 274 230 45 46 142 155 193 220 203 255
385 672 432 990 2 14 6 41 9 60 34 200 27 511 -14 742 -18 99 -77 301 -118
404 -42 105 -153 327 -177 354 -8 9 -15 20 -15 24 0 10 -84 130 -148 211 -31
39 -103 118 -161 178 -82 83 -127 120 -201 163 -52 30 -102 59 -110 64 -23 14
-178 103 -235 135 -27 15 -54 31 -60 35 -5 4 -102 60 -215 125 -113 65 -218
126 -235 135 -162 94 -426 246 -450 260 -16 10 -70 41 -120 70 -49 29 -110 64
-135 78 -25 13 -85 48 -135 77 -49 29 -106 62 -125 73 -19 10 -177 101 -350
202 -173 100 -331 191 -350 202 -19 11 -90 52 -158 92 -67 39 -145 83 -173 98
-27 15 -63 36 -78 48 -16 11 -32 20 -35 20 -4 0 -36 18 -72 40 -36 22 -67 40
-69 40 -2 0 -36 19 -77 43 -40 24 -93 55 -118 69 -25 14 -105 60 -178 102
-164 95 -177 100 -132 50z"/>
</g>
</svg>
